<?xml version="1.0" encoding="iso-8859-1"?>
<!-- Uploaded to: SVG Repo, www.svgrepo.com, Generator: SVG Repo Mixer Tools -->
<svg height="800px" width="800px" version="1.1" id="Capa_1" xmlns="http://www.w3.org/2000/svg" xmlns:xlink="http://www.w3.org/1999/xlink" 
	 viewBox="0 0 125.403 125.403" xml:space="preserve">
<g>
	<g>
		<path style="fill:#010002;" d="M93.046,104.103c0,0,2.088-1.827-1.565-4.958c0,0-9.57-6.23-15.333-13.186
			c-1.491-2.385-5.903-7.102-6.301-10.679c-0.398-3.577-3.894-11.153-3.894-11.153s-1.026-5.041,4.067-5.161
			c4.816,1.726,9.929,13.823,9.929,13.823s3.703,2.754,4.412-0.478c0,0,1.126-4.324-0.391-11.624
			c-1.63-7.855-3.353-14.132-4.994-24.677c-0.298-7.055,6.516-4.593,7.096-1.888c0.714,0.113,7.582,27.051,9.683,26.426
			c1.419-0.422-7.969-32.975-5.236-34.505c1.494-3.226,6.646-2.481,7.152-0.188c0.574,2.593,9.754,36.83,10.497,34.408
			c0.88-2.868-3.879-26.893-2.713-28.285c2.508-3.001,6.67-2.18,7.02,1.878c0.084,0.971,3.198,31.253,4.988,29.464
			c2.103-2.103-0.078-11.895,0.868-19.082c0.551-4.18,5.237-2.066,5.235,1.33c-0.002,5.994,1.474,26.177,1.352,27.481
			c0,0-0.023,12.079-4.572,26.616l-1.392,4.697L93.046,104.103z M115.596,76.51c0.011,0.877,0.062,7.962,0.068,8.588
			c0.002,0.623-0.479,0.614-0.479,0.614c-2.06,0.017-7.433,0.058-10.197,0.075c-0.888,0.008-1.476,0.009-1.476,0.009
			s0.019,2.152,0.029,3.501c0.008,1.346-1.01,0.336-1.01,0.336s-7.64-7.285-8.445-8.076c-0.578-0.578,0.06-1.133,0.06-1.133
			l8.058-8.408c0,0,0.959-1.027,0.964,0.081c0.011,1.108,0.031,3.788,0.031,3.788s0.649-0.006,1.648-0.018
			c2.858-0.018,8.058-0.057,10.174-0.072C115.021,75.795,115.593,75.637,115.596,76.51z"/>
		<path style="fill:#010002;" d="M6.637,104.363l-1.392-4.697C0.696,85.13,0.673,73.051,0.673,73.051
			C0.551,71.745,2.027,51.564,2.025,45.57c-0.002-3.396,4.685-5.51,5.235-1.33c0.946,7.188-1.234,16.979,0.868,19.082
			c1.79,1.789,4.904-28.493,4.988-29.464c0.35-4.058,4.512-4.879,7.02-1.878c1.166,1.393-3.593,25.417-2.713,28.285
			c0.743,2.422,9.923-31.815,10.497-34.408c0.507-2.293,5.658-3.037,7.152,0.188c2.732,1.53-6.655,34.083-5.236,34.505
			c2.101,0.625,8.969-26.312,9.683-26.426c0.58-2.705,7.394-5.167,7.096,1.888c-1.642,10.545-3.364,16.821-4.994,24.677
			c-1.517,7.3-0.391,11.624-0.391,11.624c0.709,3.231,4.412,0.478,4.412,0.478s5.112-12.098,9.929-13.823
			c5.094,0.12,4.067,5.161,4.067,5.161s-3.496,7.576-3.894,11.153s-4.81,8.294-6.301,10.679
			C43.681,92.915,34.11,99.145,34.11,99.145c-3.653,3.131-1.565,4.958-1.565,4.958L6.637,104.363z M10.018,76.564
			c2.116,0.016,7.315,0.055,10.174,0.072c0.999,0.012,1.648,0.018,1.648,0.018s0.021-2.68,0.031-3.788
			c0.005-1.108,0.964-0.081,0.964-0.081l8.058,8.408c0,0,0.638,0.555,0.06,1.133c-0.806,0.791-8.445,8.076-8.445,8.076
			s-1.018,1.01-1.01-0.336c0.011-1.349,0.029-3.501,0.029-3.501s-0.588-0.001-1.476-0.009c-2.765-0.018-8.138-0.059-10.197-0.075
			c0,0-0.481,0.009-0.479-0.614c0.006-0.626,0.058-7.711,0.068-8.588C9.445,76.407,10.018,76.564,10.018,76.564z"/>
		<path style="fill:#010002;" d="M42.968,29.142c-3.417,0-6.187,2.77-6.187,6.187s2.77,6.187,6.187,6.187s6.187-2.77,6.187-6.187
			S46.385,29.142,42.968,29.142z M42.968,40.234c-2.71,0-4.906-2.197-4.906-4.906c0-2.71,2.196-4.905,4.906-4.905
			c2.709,0,4.906,2.195,4.906,4.905C47.874,38.036,45.677,40.234,42.968,40.234z"/>
		<path style="fill:#010002;" d="M31.542,21.04c-3.347,0-6.06,2.713-6.06,6.06s2.713,6.06,6.06,6.06s6.06-2.713,6.06-6.06
			S34.889,21.04,31.542,21.04z M31.542,31.905c-2.654,0-4.806-2.152-4.806-4.806s2.151-4.805,4.806-4.805
			c2.653,0,4.806,2.15,4.806,4.805C36.348,29.753,34.195,31.905,31.542,31.905z"/>
		<path style="fill:#010002;" d="M16.923,27.956c-3.347,0-6.06,2.713-6.06,6.06s2.713,6.06,6.06,6.06s6.06-2.713,6.06-6.06
			S20.27,27.956,16.923,27.956z M16.923,38.821c-2.654,0-4.806-2.152-4.806-4.806c0-2.654,2.151-4.805,4.806-4.805
			c2.653,0,4.806,2.15,4.806,4.805C21.729,36.669,19.576,38.821,16.923,38.821z"/>
		<path style="fill:#010002;" d="M56.514,56.56c-3.347,0-6.06,2.713-6.06,6.06c0,3.347,2.713,6.06,6.06,6.06s6.06-2.713,6.06-6.06
			C62.574,59.273,59.86,56.56,56.514,56.56z M56.514,67.424c-2.654,0-4.806-2.152-4.806-4.806s2.151-4.805,4.806-4.805
			c2.653,0,4.806,2.15,4.806,4.805C61.319,65.271,59.167,67.424,56.514,67.424z"/>
		<path style="fill:#010002;" d="M69.837,56.56c-3.347,0-6.06,2.713-6.06,6.06c0,3.347,2.713,6.06,6.06,6.06s6.06-2.713,6.06-6.06
			C75.897,59.273,73.184,56.56,69.837,56.56z M69.837,67.424c-2.654,0-4.806-2.152-4.806-4.806s2.151-4.805,4.806-4.805
			c2.653,0,4.806,2.15,4.806,4.805C74.643,65.271,72.49,67.424,69.837,67.424z"/>
		<path style="fill:#010002;" d="M82.456,29.395c-3.347,0-6.06,2.713-6.06,6.06c0,3.347,2.713,6.06,6.06,6.06s6.06-2.713,6.06-6.06
			S85.803,29.395,82.456,29.395z M82.456,40.261c-2.654,0-4.806-2.152-4.806-4.806s2.151-4.805,4.806-4.805
			c2.653,0,4.806,2.15,4.806,4.805C87.262,38.108,85.109,40.261,82.456,40.261z"/>
		<path style="fill:#010002;" d="M94.137,21.54c-3.347,0-6.06,2.713-6.06,6.06s2.713,6.06,6.06,6.06s6.06-2.713,6.06-6.06
			S97.483,21.54,94.137,21.54z M94.137,32.405c-2.654,0-4.806-2.152-4.806-4.806s2.151-4.805,4.806-4.805
			c2.653,0,4.806,2.15,4.806,4.805C98.942,30.253,96.79,32.405,94.137,32.405z"/>
		<path style="fill:#010002;" d="M109.11,27.6c-3.347,0-6.06,2.713-6.06,6.06s2.713,6.06,6.06,6.06s6.06-2.713,6.06-6.06
			C115.17,30.313,112.457,27.6,109.11,27.6z M109.11,38.465c-2.654,0-4.806-2.152-4.806-4.806s2.151-4.805,4.806-4.805
			c2.653,0,4.806,2.15,4.806,4.805C113.916,36.312,111.764,38.465,109.11,38.465z"/>
		<path style="fill:#010002;" d="M120.76,40.393c-2.564,0-4.643,2.079-4.643,4.643c0,2.564,2.078,4.643,4.643,4.643
			s4.643-2.079,4.643-4.643C125.403,42.472,123.324,40.393,120.76,40.393z M120.76,48.716c-2.033,0-3.682-1.648-3.682-3.682
			c0-2.034,1.648-3.681,3.682-3.681s3.682,1.646,3.682,3.681C124.441,47.068,122.793,48.716,120.76,48.716z"/>
		<path style="fill:#010002;" d="M5.168,40.075C2.314,40.075,0,42.39,0,45.243s2.314,5.168,5.168,5.168s5.168-2.314,5.168-5.168
			S8.021,40.075,5.168,40.075z M5.168,49.34c-2.264,0-4.098-1.835-4.098-4.098c0-2.264,1.834-4.098,4.098-4.098
			c2.263,0,4.098,1.834,4.098,4.098C9.266,47.506,7.431,49.34,5.168,49.34z"/>
	</g>
</g>
</svg>